<svg id="Layer_1" data-name="Layer 1" xmlns="http://www.w3.org/2000/svg" viewBox="0 0 473.7 365.02"><defs><style>.cls-1{fill:#5a48d8;}</style></defs><title>Icon-White</title><path class="cls-1" d="M113.46,28.59A114.23,114.23,0,0,0,89.34,81.46l-26,157.42a53.53,53.53,0,0,1-16-5.53l-9.41-5c-15-8-26.07-22.25-31.19-40.21a75.06,75.06,0,0,1,7-58.06L50.42,67c10-17.27,25.24-29.81,42.76-35.33A66.57,66.57,0,0,1,113.46,28.59Z"/><path class="cls-1" d="M270.26,237.32c0,7.39-15.75,21.93-32.34,32.65l-1.32.85h0c-16.73-10.58-33-25.33-33.64-33.05,0-.14,0-.3,0-.44a.86.86,0,0,1,0-.16c.48-3.46,16-9,33.64-9.06h0c.12,0,.57,0,1.29,0a99.07,99.07,0,0,1,19.29,2.52C266.11,232.83,270.26,235.92,270.26,237.32Z"/><path class="cls-1" d="M397.67,254.07a75.78,75.78,0,0,0-1-9.81l-.8-4.9h0L370.59,86.2c-3.44-20.78-15.12-39.39-32.3-54a123,123,0,0,0-13.73-10,135.15,135.15,0,0,0-15.41-8.35A155.44,155.44,0,0,0,245,0h-.66c-26.86,0-52,6.55-72.76,17.79a130.76,130.76,0,0,0-14.18,8.92,112.49,112.49,0,0,0-12,10C130.87,50.57,121.09,67.5,118,86.2L93.41,235l-1.53,9.26q-.59,3.54-.84,7.1a76.19,76.19,0,0,0,.43,14.95c2,15.71,8.88,30.93,20.22,44.3,23.74,28,63.54,44.69,106.48,44.69h3.9V295.94a209,209,0,0,1-18.64-13.18c-19.88-15.9-29.54-30.76-29.54-45.44,0-9.79,4.57-27.35,35.15-34.88a129.32,129.32,0,0,1,27.55-3.39,129.38,129.38,0,0,1,27.57,3.39l2,.52c.6.15,1.19.33,1.77.49l.13.05c.6.16,1.18.35,1.76.54l.8.26.94.32c1,.33,1.9.68,2.79,1,.34.13.68.27,1,.41s.66.26,1,.41c.64.27,1.25.56,1.85.85s1.19.58,1.76.88l.84.45.83.46,1,.61,1,.62a.28.28,0,0,1,.11.08l1,.66c1,.67,1.89,1.36,2.75,2,.29.23.56.46.84.71l.79.7c.37.33.72.68,1.06,1l0,0c.36.35.7.71,1,1.06s.52.58.76.87a2.05,2.05,0,0,1,.2.23c.23.27.45.54.66.82a5.46,5.46,0,0,1,.44.57,5.72,5.72,0,0,1,.37.49c.22.29.43.6.63.91s.28.43.41.65.18.28.26.41.14.23.21.34l.34.59c.1.17.2.35.29.53s.29.55.43.84.36.73.52,1.1.34.79.49,1.18.27.68.38,1a25.46,25.46,0,0,1,.82,2.83c.06.19.1.37.14.55s.14.63.19,1,.13.62.17.91.1.67.13,1,.08.65.11,1c.1,1,.15,2,.15,2.94,0,.46,0,.92,0,1.38s0,.65,0,1-.05.56-.08.85h0s0,0,0,0h0s0,0,0,0v0a.25.25,0,0,1,0,.09.2.2,0,0,1,0,.11c-.05.42-.1.85-.16,1.27s-.1.69-.16,1-.12.68-.19,1a30.62,30.62,0,0,1-.75,3c-.12.43-.25.86-.4,1.28s-.32.95-.49,1.43c-.11.28-.22.58-.35.87s-.25.65-.39,1a44.46,44.46,0,0,1-2.35,4.75c-.12.22-.24.43-.37.64s-.24.43-.38.65l-.59,1c-1.09,1.74-2.31,3.49-3.68,5.26-.35.46-.72.91-1.09,1.37l-.79.95q-2.24,2.7-4.93,5.44c-.39.42-.81.83-1.23,1.25-.83.83-1.69,1.64-2.58,2.48l-1.84,1.67-1.57,1.4q-2.4,2.08-5.06,4.2a209,209,0,0,1-18.64,13.18V355.3h19.31c42.93,0,82.73-16.7,106.47-44.69A91.55,91.55,0,0,0,390,290.43a80.79,80.79,0,0,0,6.77-21.81h0A74.6,74.6,0,0,0,397.67,254.07Zm-207.93-120a27.63,27.63,0,1,1,27.61-27.62A27.62,27.62,0,0,1,189.74,134.1Zm111.75,0a27.63,27.63,0,1,1,27.61-27.62A27.62,27.62,0,0,1,301.49,134.1Z"/><path class="cls-1" d="M466.45,188.14c-5.12,18-16.2,32.24-31.19,40.21l-9.41,5-.17.09c-.39.2-.8.42-1.21.62L399.25,81.46a113.8,113.8,0,0,0-22.41-50.7c.56.14,1.11.29,1.65.46s1,.3,1.53.46C397.54,37.2,412.73,49.74,422.77,67l36.71,63.07A75.06,75.06,0,0,1,466.45,188.14Z"/></svg>