<svg viewBox="0 0 482.52 355.3" xmlns="http://www.w3.org/2000/svg"><g fill="#fff"><path d="m117.58 28.59a114.21 114.21 0 0 0 -24.11 52.87l-26 157.42a53.53 53.53 0 0 1 -16-5.53l-9.41-5c-15-8-26.07-22.25-31.19-40.21a75.06 75.06 0 0 1 7-58.06l36.68-63.08c10-17.27 25.24-29.81 42.76-35.33a66.5 66.5 0 0 1 20.27-3.08z"/><path d="m274.38 237.32c0 7.39-15.75 21.93-32.34 32.65l-1.31.85c-16.74-10.58-33-25.33-33.65-33.05 0-.14 0-.3 0-.44a.86.86 0 0 1 0-.16c.48-3.46 16-9 33.65-9.06h1.29a99.07 99.07 0 0 1 19.29 2.52c8.93 2.2 13.07 5.29 13.07 6.69z"/><path d="m401.8 254.07a75.78 75.78 0 0 0 -1-9.81l-.81-4.9-25.27-153.16c-3.45-20.78-15.13-39.39-32.31-54a121.13 121.13 0 0 0 -13.73-10 134.3 134.3 0 0 0 -15.41-8.35 155.43 155.43 0 0 0 -64.19-13.85h-.66c-26.87 0-52 6.55-72.77 17.79a129.65 129.65 0 0 0 -14.17 8.92 112.61 112.61 0 0 0 -12.06 10c-14.42 13.86-24.2 30.79-27.29 49.49l-24.59 148.8-1.54 9.26c-.38 2.36-.67 4.73-.83 7.1a75.42 75.42 0 0 0 .43 14.95c2 15.71 8.88 30.93 20.22 44.3 23.74 28 63.54 44.69 106.47 44.69h3.91v-59.36a208.94 208.94 0 0 1 -18.65-13.18c-19.87-15.9-29.55-30.76-29.55-45.44 0-9.79 4.57-27.35 35.15-34.88a129.32 129.32 0 0 1 27.56-3.39 129.38 129.38 0 0 1 27.56 3.39c.68.17 1.34.34 2 .52s1.19.33 1.77.49l.14.05c.59.16 1.18.35 1.75.54l.81.26c.32.1.63.21.93.32 1 .33 1.9.68 2.8 1 .34.13.67.27 1 .41s.65.26 1 .41c.64.27 1.26.56 1.85.85s1.19.58 1.77.88l.84.45.82.46 1 .61 1 .62a.23.23 0 0 1 .11.08l1 .66c1 .67 1.88 1.36 2.74 2 .29.23.57.46.84.71s.54.47.8.7.71.68 1 1c.35.35.69.71 1 1.06s.52.58.76.87a1.37 1.37 0 0 1 .2.23c.23.27.45.54.66.82s.31.38.45.57a5.6 5.6 0 0 1 .36.49c.22.29.43.6.63.91s.28.43.42.65.17.28.25.41.14.23.21.34l.34.59c.1.17.2.35.29.53s.3.55.43.84.36.73.52 1.1.34.79.49 1.18.27.68.38 1a25.56 25.56 0 0 1 .83 2.83c.05.19.1.37.13.55s.14.63.2 1 .12.62.16.91.1.67.14 1 .07.65.11 1c.1 1 .14 2 .14 2.94q0 .69 0 1.38c0 .32 0 .65-.06 1s0 .56-.08.85 0 0 0 0a.25.25 0 0 1 0 .09.2.2 0 0 1 0 .11c0 .42-.1.85-.15 1.27s-.1.69-.17 1-.12.68-.19 1a30.62 30.62 0 0 1 -.75 3c-.12.43-.25.86-.39 1.28s-.32.95-.5 1.43c-.11.28-.22.58-.34.87s-.26.65-.4 1a42.65 42.65 0 0 1 -2.35 4.75l-.36.64c-.12.21-.25.43-.39.65s-.39.64-.58 1c-1.1 1.74-2.32 3.49-3.69 5.26-.35.46-.72.91-1.09 1.37l-.78.95c-1.49 1.8-3.14 3.61-4.93 5.44-.4.42-.82.83-1.24 1.25-.83.83-1.69 1.64-2.58 2.48l-1.83 1.67c-.52.46-1 .92-1.58 1.4-1.6 1.39-3.29 2.79-5.05 4.2a207.5 207.5 0 0 1 -18.65 13.18v59.5h19.31c42.93 0 82.74-16.7 106.48-44.69a91.86 91.86 0 0 0 13.1-20.18 80.79 80.79 0 0 0 6.77-21.81 74.6 74.6 0 0 0 .93-14.55zm-207.94-120a27.63 27.63 0 1 1 27.62-27.62 27.63 27.63 0 0 1 -27.62 27.65zm111.75 0a27.63 27.63 0 1 1 27.62-27.62 27.63 27.63 0 0 1 -27.62 27.65z"/><path d="m470.57 188.14c-5.12 18-16.2 32.24-31.19 40.21l-9.41 5-.16.09-1.22.62-25.21-152.6a113.93 113.93 0 0 0 -22.38-50.7c.56.14 1.11.29 1.65.46s1 .3 1.54.46c17.48 5.52 32.67 18.06 42.7 35.32l36.72 63.07a75.1 75.1 0 0 1 6.96 58.07z"/></g></svg>