<svg id="Layer_1" data-name="Layer 1" xmlns="http://www.w3.org/2000/svg" viewBox="0 0 1208.83 285.52"><defs><style>.cls-1{fill:#5a48d8;}</style></defs><title>Color on White copy 3</title><path class="cls-1" d="M88.09,23A91.81,91.81,0,0,0,68.71,65.46L47.81,192A43,43,0,0,1,35,187.52l-7.56-4c-12-6.41-20.95-17.88-25.06-32.32a60.26,60.26,0,0,1,5.59-46.65L37.43,53.85C45.51,40,57.72,29.89,71.8,25.46A53.24,53.24,0,0,1,88.09,23Z"/><path class="cls-1" d="M214.1,190.71c0,5.94-12.66,17.63-26,26.24l-1,.69h0c-13.45-8.5-26.53-20.36-27-26.56,0-.12,0-.24,0-.36a.57.57,0,0,1,0-.13c.39-2.77,12.86-7.22,27-7.28h0c.09,0,.46,0,1,0a79.77,79.77,0,0,1,15.51,2C210.76,187.11,214.1,189.59,214.1,190.71Z"/><path class="cls-1" d="M316.49,204.17a61.84,61.84,0,0,0-.78-7.88l-.65-3.94h0L294.72,69.27c-2.76-16.7-12.15-31.66-26-43.37a96.3,96.3,0,0,0-11-8.07,104.75,104.75,0,0,0-12.38-6.71A124.75,124.75,0,0,0,193.76,0h-.53c-21.59,0-41.81,5.27-58.48,14.3a104.85,104.85,0,0,0-11.39,7.16,93.14,93.14,0,0,0-9.69,8.07C102.08,40.64,94.22,54.25,91.74,69.27L72,188.85l-1.23,7.44c-.31,1.9-.54,3.8-.67,5.71a61,61,0,0,0,.34,12c1.61,12.62,7.14,24.86,16.25,35.6,19.08,22.49,51.06,35.91,85.57,35.91h3.13v-47.7a170,170,0,0,1-15-10.59c-16-12.78-23.74-24.72-23.74-36.52,0-7.87,3.67-22,28.25-28A103.92,103.92,0,0,1,187,160a104,104,0,0,1,22.15,2.72c.55.13,1.08.28,1.6.42s1,.26,1.43.4l.1,0,1.41.44.65.21c.26.08.51.17.75.26.78.26,1.53.54,2.25.83.27.11.54.21.79.33s.53.21.78.33c.52.22,1,.45,1.49.68s1,.47,1.42.71l.68.36.66.37.83.49.79.5a.2.2,0,0,1,.09.06l.81.53c.79.54,1.51,1.09,2.21,1.65.23.19.45.37.67.57s.43.38.64.57.57.54.85.8l0,0c.28.28.55.57.81.85s.42.47.61.7a.7.7,0,0,1,.16.19,7.93,7.93,0,0,1,.53.65,4.82,4.82,0,0,1,.36.46c.11.13.2.26.29.39s.35.49.51.74.23.35.33.52a3,3,0,0,1,.21.33l.17.28.27.47c.08.14.16.28.23.42s.24.44.35.67.29.6.41.89.28.64.4.95.22.55.3.82a19.69,19.69,0,0,1,.67,2.26c0,.16.08.31.11.45s.11.5.15.76.1.5.14.74.08.53.1.78.07.53.09.78c.08.83.12,1.63.12,2.36,0,.38,0,.74,0,1.11s0,.52,0,.79l-.06.68h0a0,0,0,0,1,0,0v0s0,.06,0,.07a.13.13,0,0,1,0,.09c0,.34-.08.69-.13,1s-.08.56-.13.84-.1.54-.15.81a24.28,24.28,0,0,1-.6,2.45c-.1.34-.21.69-.32,1s-.26.76-.4,1.14l-.27.7c-.1.26-.21.52-.32.78a37.55,37.55,0,0,1-1.89,3.82l-.29.52c-.1.16-.2.34-.32.52s-.31.51-.46.78q-1.32,2.08-3,4.22c-.28.37-.57.73-.87,1.11l-.63.76q-1.8,2.16-4,4.37c-.31.34-.65.66-1,1-.66.67-1.35,1.32-2.07,2L219,222.72l-1.27,1.13c-1.29,1.12-2.64,2.24-4.06,3.38a170,170,0,0,1-15,10.59v47.7h15.51c34.5,0,66.49-13.42,85.56-35.91a73.79,73.79,0,0,0,10.54-16.22,65.2,65.2,0,0,0,5.44-17.53h0A60.13,60.13,0,0,0,316.49,204.17Zm-167.1-96.41a22.2,22.2,0,1,1,22.19-22.19A22.19,22.19,0,0,1,149.39,107.76Zm89.8,0a22.2,22.2,0,1,1,22.19-22.19A22.18,22.18,0,0,1,239.19,107.76Z"/><path class="cls-1" d="M371.75,151.19c-4.11,14.44-13,25.91-25.06,32.32l-7.56,4-.13.07-1,.5L317.76,65.46a91.4,91.4,0,0,0-18-40.74c.45.11.9.24,1.33.37s.83.24,1.23.37c14.08,4.43,26.29,14.51,34.36,28.39l29.5,50.69A60.26,60.26,0,0,1,371.75,151.19Z"/><path class="cls-1" d="M440.56,151.79c0-42,31.81-68.83,67.15-68.83,36.46,0,55.25,22.32,60.46,43.71L544,134.3c-3.16-12.65-13.4-26.6-36.28-26.6-19.71,0-40.55,14.14-40.55,44.09,0,28.08,19.72,43.52,40.93,43.52,22.5,0,33.48-14.69,37-27l24,7.26c-5,20.27-24,44.83-61,44.83C471.25,220.43,440.56,193.83,440.56,151.79Z"/><path class="cls-1" d="M642.77,150.67a37.09,37.09,0,0,0-7.44-.74c-12.65,0-23.63,6.13-23.63,25.85v41.86H587V126.11h24v13.58c5.58-12.09,18.23-14.32,26-14.32,2,0,3.91.19,5.77.37Z"/><path class="cls-1" d="M682.58,165l22.51-3.35c5.2-.74,6.88-3.34,6.88-6.51,0-6.51-5-11.9-15.44-11.9-10.79,0-16.74,6.88-17.49,14.88l-21.95-4.65c1.49-14.32,14.7-30.14,39.25-30.14,29,0,39.81,16.37,39.81,34.79v45a102.32,102.32,0,0,0,1.12,14.51h-22.7a62.78,62.78,0,0,1-.93-11c-4.65,7.26-13.39,13.58-27,13.58-19.53,0-31.44-13.21-31.44-27.53C655.23,176.34,667.32,167.23,682.58,165ZM712,180.62v-4.09l-20.65,3.16c-6.32.93-11.35,4.46-11.35,11.53,0,5.4,3.91,10.6,11.91,10.6C702.3,201.82,712,196.8,712,180.62Z"/><path class="cls-1" d="M790.66,116.07v10H811.3v21.21H790.66v70.32H765.73V147.32H750.48V126.11h15.25V115.7c0-20.65,13-34,33.3-34,5.21,0,10.23.93,12.27,1.86v20.83a27.72,27.72,0,0,0-7.81-.93C797.91,103.42,790.66,105.84,790.66,116.07Z"/><path class="cls-1" d="M861.72,126.11h18.41v22H861.72v38.33c0,8,3.72,10.6,10.78,10.6a35.3,35.3,0,0,0,7.63-.75v20.47c-2.23.93-6.7,2.23-14,2.23-17.86,0-29-10.6-29-28.28v-42.6H820.61v-22h4.65c9.67,0,14.13-6.32,14.13-14.51V98.77h22.33Z"/><path class="cls-1" d="M987.46,201.08c0,6.14.38,12.84.75,16.56H964.58a63.49,63.49,0,0,1-.93-10.61c-4.09,7.26-13.39,12.84-25.67,12.84-26,0-44.64-20.46-44.64-48.18,0-26.79,18-47.81,43.9-47.81,15.81,0,23.25,6.51,25.86,11.35V83h24.36ZM941,197.73c12.65,0,22.51-9.67,22.51-26.23,0-16.37-9.86-25.48-22.51-25.48s-22.7,9.3-22.7,25.67S927.94,197.73,941,197.73Z"/><path class="cls-1" d="M1103.36,171.88c0,28.08-20.65,48.55-48,48.55s-48-20.47-48-48.55c0-28.28,20.65-48.56,48-48.56S1103.36,143.6,1103.36,171.88Zm-24.74,0c0-17.3-11.17-26-23.26-26s-23.25,8.75-23.25,26c0,17.11,11.16,26,23.25,26S1078.62,189.18,1078.62,171.88Z"/><path class="cls-1" d="M1138.7,216.71c1.68,10,9.68,17.3,21.4,17.3,15.62,0,24.36-7.82,24.36-25.49v-6.7c-3.72,6-12.27,11.72-25.48,11.72-24.37,0-42.6-18.78-42.6-44.45,0-24.19,17.49-44.65,42.6-44.65,14.51,0,22.88,6.32,26,12.46V126.11h23.81v81.67c0,25.11-13.58,48-48,48-25.11,0-41.86-15.62-44.46-33.11Zm46.14-47.62c0-14.14-9.68-23.07-21.58-23.07-12.28,0-22,8.93-22,23.07,0,14.32,9.11,23.25,22,23.25C1175.91,192.34,1184.84,183.22,1184.84,169.09Z"/></svg>